<svg xmlns="http://www.w3.org/2000/svg" xmlns:xlink="http://www.w3.org/1999/xlink" width="129" height="26" viewBox="0 0 129 26"><defs><path id="ic3oa" d="M389.353 3450.853a1.56 1.56 0 0 1-1.49 2.02h-4.6a1.561 1.561 0 0 1-1.52-1.21l-1.523-6.72h-1.639v6.37c0 .861-.7 1.56-1.562 1.56h-3.902a1.562 1.562 0 0 1-1.562-1.56v-6.37h-1.909l-2.062 6.827a1.561 1.561 0 0 1-1.493 1.103h-4.551a1.563 1.563 0 0 1-1.457-2.121l3.668-9.537-3.633-7.99a1.56 1.56 0 0 1 1.422-2.207h4.55c.657 0 1.245.41 1.47 1.027l2.463 6.966h1.532v-6.432c0-.862.7-1.56 1.562-1.56h3.902c.862 0 1.562.698 1.562 1.56v6.432h1.361l1.816-6.843a1.56 1.56 0 0 1 1.505-1.15h4.599a1.562 1.562 0 0 1 1.467 2.095l-2.944 8.094zm23.714-18.952c.1.206.161.434.161.678v18.733a1.56 1.56 0 0 1-1.561 1.56h-3.902a1.562 1.562 0 0 1-1.562-1.56v-8.191h-.09l-6.441 9.093c-.013.018-.03.03-.044.047-.053.07-.112.136-.175.196-.03.027-.061.05-.092.076a1.69 1.69 0 0 1-.292.183c-.073.035-.15.062-.228.085-.032.01-.062.022-.095.03a1.572 1.572 0 0 1-.348.042h-3.903c-.133 0-.26-.021-.384-.054l-.098-.03a1.66 1.66 0 0 1-.274-.12c-.025-.014-.053-.025-.077-.042a1.621 1.621 0 0 1-.29-.235c-.017-.017-.03-.038-.046-.056a1.634 1.634 0 0 1-.185-.262c-.009-.016-.023-.03-.031-.046-.006-.012-.009-.026-.015-.039-.1-.206-.16-.434-.16-.677v-18.733a1.56 1.56 0 0 1 1.56-1.56h3.903c.86 0 1.562.698 1.562 1.56v8.202h.082l6.449-9.104c.012-.018.029-.03.043-.047.054-.07.111-.135.176-.195a1.671 1.671 0 0 1 .383-.26c.074-.035.15-.062.228-.085.032-.01.064-.022.096-.03.112-.025.228-.042.348-.042h3.902c.134 0 .26.021.384.053.034.009.064.02.098.03.096.032.187.071.275.12.025.015.052.026.076.042.105.067.203.146.29.236.017.018.03.038.047.056.07.08.13.167.184.261.01.017.024.03.033.047.006.012.006.026.013.038zm23.576.678v18.733a1.56 1.56 0 0 1-1.56 1.56h-3.903a1.56 1.56 0 0 1-1.56-1.56v-6.37h-5.465v6.37a1.56 1.56 0 0 1-1.56 1.56h-3.904a1.561 1.561 0 0 1-1.561-1.56v-18.733c0-.862.7-1.56 1.561-1.56h3.904c.861 0 1.56.698 1.56 1.56v6.37h5.464v-6.37a1.56 1.56 0 0 1 1.561-1.56h3.902a1.56 1.56 0 0 1 1.561 1.56zm-79.54 15.61v7.245c0 .862-.698 1.56-1.562 1.56h-3.12a1.56 1.56 0 0 1-1.562-1.56v-2.561h-10.928v2.56c0 .863-.699 1.562-1.56 1.562h-3.81a1.561 1.561 0 0 1-1.56-1.561v-7.245c0-.861.699-1.56 1.56-1.56h1.468l2.341-14.05c0-.862.7-1.56 1.561-1.56h14.05c.863 0 1.56.698 1.56 1.56v14.05c.864 0 1.562.699 1.562 1.56zm-8.086-10.926h-4.816l-1.525 9.74 6.341.01zm112.619 4.682c0 6.443-4.5 10.943-10.943 10.943-6.442 0-10.942-4.5-10.942-10.943s4.5-10.943 10.942-10.943c6.443 0 10.943 4.5 10.943 10.943zm-6.252 0c0-2.98-1.71-4.69-4.69-4.69-2.98 0-4.69 1.71-4.69 4.69 0 2.98 1.71 4.689 4.69 4.689 2.98 0 4.69-1.71 4.69-4.689z"/></defs><g><g transform="translate(-333 -3431)"><use fill="#fff" xlink:href="#ic3oa"/></g></g></svg>